<svg xmlns="http://www.w3.org/2000/svg" viewBox="0 0 24 24" width="200" height="200" fill="none" stroke-linecap="round" stroke-linejoin="round">
  <defs>
    <linearGradient id="g" x1="0%" y1="0%" x2="100%" y2="100%">
      <stop offset="0%" stop-color="#06B6D4"/>
      <stop offset="50%" stop-color="#8B5CF6"/>
      <stop offset="100%" stop-color="#6D28D9"/>
    </linearGradient>
  </defs>
  <!-- Brain icon, based on Tabler Icons (MIT), custom gradient -->
  <g stroke="url(#g)" stroke-width="1.5">
    <!-- Right hemisphere lower -->
    <path d="M15.5 13a3.5 3.5 0 0 0 -3.5 3.5v1a3.5 3.5 0 0 0 7 0v-1.8"/>
    <!-- Left hemisphere lower -->
    <path d="M8.5 13a3.5 3.5 0 0 1 3.5 3.5v1a3.5 3.5 0 0 1 -7 0v-1.8"/>
    <!-- Right hemisphere upper -->
    <path d="M17.5 16a3.5 3.5 0 0 0 0 -7h-.5"/>
    <path d="M19 9.3v-2.8a3.5 3.5 0 0 0 -7 0"/>
    <!-- Left hemisphere upper -->
    <path d="M6.5 16a3.5 3.5 0 0 1 0 -7h.5"/>
    <path d="M5 9.3v-2.8a3.5 3.5 0 0 1 7 0v10"/>
  </g>
</svg>
